<svg width="20" height="20" viewBox="0 0 20 20" xmlns="http://www.w3.org/2000/svg">
<path fill-rule="evenodd" clip-rule="evenodd" d="M1 1C0.447715 1 0 1.44772 0 2V18C0 18.5523 0.447715 19 1 19H19C19.5523 19 20 18.5523 20 18V2C20 1.44772 19.5523 1 19 1H1ZM17 4H3V16H17V4ZM5 7C5 6.44772 5.44772 6 6 6H8C8.55229 6 9 6.44772 9 7V9C9 9.55229 8.55229 10 8 10H6C5.44772 10 5 9.55229 5 9V7ZM10.5 6C10.2239 6 10 6.22386 10 6.5C10 6.77614 10.2239 7 10.5 7H14.5C14.7761 7 15 6.77614 15 6.5C15 6.22386 14.7761 6 14.5 6H10.5ZM10.5 12C10.2239 12 10 12.2239 10 12.5C10 12.7761 10.2239 13 10.5 13H14.5C14.7761 13 15 12.7761 15 12.5C15 12.2239 14.7761 12 14.5 12H10.5ZM10 9.5C10 9.22386 10.2239 9 10.5 9H14.5C14.7761 9 15 9.22386 15 9.5C15 9.77614 14.7761 10 14.5 10H10.5C10.2239 10 10 9.77614 10 9.5Z"/>
</svg>
